<?xml version="1.0" standalone="no"?>
<!DOCTYPE svg PUBLIC "-//W3C//DTD SVG 20010904//EN"
 "http://www.w3.org/TR/2001/REC-SVG-20010904/DTD/svg10.dtd">
<svg version="1.0" xmlns="http://www.w3.org/2000/svg"
 width="100.000000pt" height="100.000000pt" viewBox="0 0 100.000000 100.000000"
 preserveAspectRatio="xMidYMid meet">
<metadata>
Created by potrace 1.16, written by Peter Selinger 2001-2019
</metadata>
<g transform="translate(0.000000,100.000000) scale(0.100000,-0.100000)"
fill="#D32F2F" stroke="none">
<path d="M71 926 c-7 -8 -8 -15 -2 -18 5 -1 68 -70 140 -153 85 -97 131 -158
131 -172 0 -16 6 -23 18 -23 10 0 33 -16 52 -35 l34 -35 -35 -35 -35 -35 -77
31 c-63 26 -80 29 -92 19 -8 -7 -15 -17 -15 -23 0 -6 3 -8 6 -4 9 8 124 -81
124 -95 0 -7 -13 1 -30 17 -16 16 -30 24 -30 19 0 -6 11 -21 24 -33 14 -13 22
-29 19 -37 -3 -9 2 -14 14 -14 11 0 30 -11 43 -25 13 -14 26 -23 28 -20 3 3
-7 19 -23 35 -16 17 -24 30 -17 30 14 0 103 -115 95 -124 -4 -3 -2 -6 4 -6 6
0 16 7 23 15 10 12 7 29 -19 92 l-31 77 35 35 35 35 35 -34 c19 -19 35 -42 35
-52 0 -12 7 -18 23 -18 15 0 73 -44 167 -126 80 -69 150 -132 156 -140 10 -12
13 -12 24 1 14 17 25 4 -154 195 -49 52 -118 124 -153 160 -35 36 -63 70 -63
76 0 5 36 45 81 89 94 93 105 110 88 131 -6 8 -16 14 -22 14 -5 0 -51 -40
-101 -90 -51 -49 -96 -90 -101 -90 -5 0 -39 29 -75 64 -129 127 -334 316 -341
316 -3 0 -12 -6 -18 -14z"/>
</g>
</svg>
